<?xml version="1.0" encoding="utf-8"?>
<!-- Generator: Adobe Illustrator 24.3.0, SVG Export Plug-In . SVG Version: 6.00 Build 0)  -->
<svg version="1.1" id="Layer_1" xmlns="http://www.w3.org/2000/svg" xmlns:xlink="http://www.w3.org/1999/xlink" x="0px" y="0px"
	 viewBox="0 0 1440 701" style="enable-background:new 0 0 1440 701;" xml:space="preserve">
<style type="text/css">
	.st0{display:none;}
	.st1{display:inline;fill:url(#SVGID_1_);}
	.st2{display:inline;}
	.st3{fill:url(#SVGID_2_);}
	.st4{fill:#6B9EE8;}
	.st5{display:inline;fill:#6B9EE8;}
	.st6{display:inline;fill:#FAC984;}
	.st7{display:inline;fill:#FFFFFF;}
	.st8{fill:#FBB787;}
	.st9{display:inline;fill:#FBB787;}
	.st10{display:inline;fill:#FEFCFB;}
	.st11{display:inline;fill:#4082E9;}
	.st12{display:inline;fill:#6B9EE8;fill-opacity:0.8;}
	.st13{display:inline;fill:#FBB787;fill-opacity:0.7;}
	.st14{fill:url(#SVGID_3_);}
	.st15{fill:url(#SVGID_4_);}
	.st16{fill:#FEFCFB;}
	.st17{fill:#4082E9;}
	.st18{opacity:0.5;fill:#FBB787;fill-opacity:0.7;}
	.st19{opacity:0.5;fill:#6B9EE8;fill-opacity:0.8;}
</style>
<g id="Layer_1_1_" class="st0">
	<image style="display:inline;overflow:visible;enable-background:new    ;" width="1440" height="701" xlink:href="8A04C148.png" >
	</image>
</g>
<g id="Layer_2_1_" class="st0">
	
		<linearGradient id="SVGID_1_" gradientUnits="userSpaceOnUse" x1="-204" y1="818" x2="-204" y2="231" gradientTransform="matrix(1 0 0 -1 564 936)">
		<stop  offset="0" style="stop-color:#D5E4F9;stop-opacity:0.9"/>
		<stop  offset="0.3894" style="stop-color:#D5E4F9;stop-opacity:0.2"/>
		<stop  offset="0.7163" style="stop-color:#D5E4F9;stop-opacity:0.2"/>
		<stop  offset="1" style="stop-color:#D5E4F9;stop-opacity:0.9"/>
	</linearGradient>
	<path class="st1" d="M628.2,439.2c27,108.7,72.5,222.5,91.8,265.8H0V118c98.4,49.3,267.9,76,451.6,82.6
		C635.2,207.1,594.4,303.3,628.2,439.2z"/>
	<g class="st2">
		
			<radialGradient id="SVGID_2_" cx="-238.9831" cy="889.9037" r="1.0009" gradientTransform="matrix(-0.2756 203.4998 296.8797 0.4021 -263927.7188 48772.7031)" gradientUnits="userSpaceOnUse">
			<stop  offset="0.5" style="stop-color:#6AA0EB"/>
			<stop  offset="1" style="stop-color:#4C8AE4"/>
		</radialGradient>
		<path class="st3" d="M626,591c-32.5,67-34.3,83.8-40.5,110H0V222c19.2,17.5,65.6,50.9,98,44.5c40.5-8,296-50.5,466,8
			S642.8,556.4,626,591z"/>
	</g>
	<g class="st2">
		<path class="st4" d="M614.7,114.4l22.8-4.9c9.2-2,18.2,3.9,20.2,13.1l4.7,22.2c2,9.2-3.9,18.2-13.1,20.2l-22.8,4.9
			c-9.2,2-18.2-3.9-20.2-13.1l-4.7-22.2C599.7,125.4,605.5,116.3,614.7,114.4z"/>
	</g>
	<path class="st5" d="M598.6,104.1L648,93.6c9.2-2,18.2,3.9,20.2,13.1l10.3,48.5c2,9.2-3.9,18.2-13.1,20.2l-49.3,10.5
		c-9.2,2-18.2-3.9-20.2-13.1l-10.3-48.5C583.6,115.1,589.4,106,598.6,104.1z"/>
	<path class="st6" d="M629.7,142l-1.1-5.3l5.9-1.3l1.1,5.3l5.3-1.1l1.3,5.9l-5.3,1.1l1.1,5.3l-3,0.6l-3,0.6l-1.1-5.3l-5.3,1.1
		l-1.3-5.9L629.7,142z"/>
	<path class="st7" d="M622.7,124.8l12.4-2.6c0.4-0.1,0.8,0.2,0.8,0.5l0.7,3.4l-13.8,2.9l-0.7-3.4C622,125.3,622.3,124.9,622.7,124.8
		z M618,126.5l0.7,3.4l-5.5,1.2c-3,0.6-5,3.6-4.3,6.6l4.7,21.9c0.6,3,3.6,4.9,6.7,4.3l33-7c3-0.6,5-3.6,4.3-6.6l-4.7-21.9
		c-0.6-3-3.6-4.9-6.7-4.3l-5.5,1.2l-0.7-3.4c-0.6-2.6-3.2-4.3-5.8-3.8l-12.4,2.6C619.1,121.3,617.4,123.9,618,126.5z M629,137.8
		c-0.2-0.8,0.3-1.5,1.1-1.7l2.8-0.6c0.8-0.2,1.5,0.3,1.7,1.1l0.9,4.1l4.1-0.9c0.8-0.2,1.5,0.3,1.7,1.1l0.6,2.7
		c0.2,0.8-0.3,1.5-1.1,1.7l-4.1,0.9l0.9,4.1c0.2,0.8-0.3,1.5-1.1,1.7l-2.8,0.6c-0.8,0.2-1.5-0.3-1.7-1.1l-0.9-4.1l-4.1,0.9
		c-0.8,0.2-1.5-0.3-1.7-1.1l-0.6-2.7c-0.2-0.8,0.3-1.5,1.1-1.7l4.1-0.9L629,137.8z"/>
	<g class="st2">
		<path class="st8" d="M732.7,542.7l16.5,1.5c9.3,0.8,16.3,9.1,15.4,18.4l-1.4,16c-0.8,9.3-9.1,16.3-18.4,15.4l-16.5-1.5
			c-9.3-0.8-16.3-9.1-15.4-18.4l1.4-16C715.1,548.8,723.3,541.8,732.7,542.7z"/>
	</g>
	<path class="st9" d="M717.3,524.5l50.2,4.4c9.3,0.8,16.3,9.1,15.4,18.4l-4.3,49.4c-0.8,9.3-9.1,16.3-18.4,15.4l-50.2-4.4
		c-9.3-0.8-16.3-9.1-15.4-18.4l4.3-49.4C699.7,530.6,707.9,523.7,717.3,524.5z"/>
	<path class="st10" d="M723.5,556.8c-2-5.9,1.2-12.4,7.1-14.4l0,0c5.9-2,12.4,1.2,14.4,7.1l5.2,15.6l-21.5,7.2L723.5,556.8z"/>
	<path class="st11" d="M733.7,587.2c2,5.9,8.4,9.1,14.4,7.1l0,0c5.9-2,9.1-8.4,7.1-14.4l-5.2-15.6l-21.5,7.2L733.7,587.2z"/>
	<path class="st12" d="M143.5,104l9.8-2.1c0.5-0.1,0.9-0.7,0.8-1.2l-2.1-9.8c-0.1-0.5-0.6-0.9-1.2-0.8l-9.8,2.1
		c-0.5,0.1-0.9,0.7-0.8,1.2l2.1,9.8C142.4,103.8,142.9,104.2,143.5,104z"/>
	<path class="st13" d="M40,176.1l10,0.9c0.5,0.1,1,0.5,0.9,1.1L50,188c0,0.6-0.5,1-1.1,0.9L39,188c-0.5-0.1-1-0.5-0.9-1.1l0.9-10
		C39,176.4,39.5,176,40,176.1z"/>
</g>
<g id="Layer_2_2_">
	
		<linearGradient id="SVGID_3_" gradientUnits="userSpaceOnUse" x1="-204" y1="818" x2="-204" y2="231" gradientTransform="matrix(1 0 0 -1 564 936)">
		<stop  offset="0" style="stop-color:#D5E4F9;stop-opacity:0.9"/>
		<stop  offset="0.3894" style="stop-color:#D5E4F9;stop-opacity:0.2"/>
		<stop  offset="0.7163" style="stop-color:#D5E4F9;stop-opacity:0.2"/>
		<stop  offset="1" style="stop-color:#D5E4F9;stop-opacity:0.9"/>
	</linearGradient>
	<path class="st14" d="M628.2,439.2c27,108.7,72.5,222.5,91.8,265.8H0V118c98.4,49.3,267.9,76,451.6,82.6
		C635.2,207.1,594.4,303.3,628.2,439.2z"/>
	<g>
		
			<radialGradient id="SVGID_4_" cx="-238.9831" cy="889.9037" r="1.0009" gradientTransform="matrix(-0.2756 203.4998 296.8797 0.4021 -263927.7188 48772.7031)" gradientUnits="userSpaceOnUse">
			<stop  offset="0.5" style="stop-color:#6AA0EB"/>
			<stop  offset="1" style="stop-color:#4C8AE4"/>
		</radialGradient>
		<path class="st15" d="M626,591c-32.5,67-34.3,83.8-40.5,110H0V222c19.2,17.5,65.6,50.9,98,44.5c40.5-8,296-50.5,466,8
			S642.8,556.4,626,591z"/>
	</g>
</g>
<path class="st8" d="M825.9,529l50.2,4.4c9.3,0.8,16.3,9.1,15.4,18.4l-4.3,49.4c-0.8,9.3-9.1,16.3-18.4,15.4l-50.2-4.4
	c-9.3-0.8-16.3-9.1-15.4-18.4l4.3-49.4C808.3,535.1,816.5,528.2,825.9,529z"/>
<path class="st16" d="M832.1,561.3c-2-5.9,1.2-12.4,7.1-14.4l0,0c5.9-2,12.4,1.2,14.4,7.1l5.2,15.6l-21.5,7.2L832.1,561.3z"/>
<path class="st17" d="M842.3,591.7c2,5.9,8.4,9.1,14.4,7.1l0,0c5.9-2,9.1-8.4,7.1-14.4l-5.2-15.6l-21.5,7.2L842.3,591.7z"/>
<path class="st18" d="M715.5,545.2l10,0.9c0.5,0.1,1,0.5,0.9,1.1l-0.9,9.9c0,0.6-0.5,1-1.1,0.9l-9.9-0.9c-0.5-0.1-1-0.5-0.9-1.1
	l0.9-10C714.5,545.5,715,545.1,715.5,545.2z"/>
<path class="st19" d="M519.8,152.9l9.8-2.1c0.5-0.1,0.9-0.7,0.8-1.2l-2.1-9.8c-0.1-0.5-0.6-0.9-1.2-0.8l-9.8,2.1
	c-0.5,0.1-0.9,0.7-0.8,1.2l2.1,9.8C518.8,152.7,519.2,153.1,519.8,152.9z"/>
</svg>
