<?xml version="1.0" encoding="utf-8"?>
<!-- Generator: Adobe Illustrator 24.3.0, SVG Export Plug-In . SVG Version: 6.00 Build 0)  -->
<svg version="1.1" xmlns="http://www.w3.org/2000/svg" xmlns:xlink="http://www.w3.org/1999/xlink" x="0px" y="0px"
	 viewBox="0 0 1440 701" style="enable-background:new 0 0 1440 701;" xml:space="preserve">
<style type="text/css">
	.st0{display:none;}
	.st1{display:inline;fill:url(#SVGID_1_);}
	.st2{display:inline;}
	.st3{fill:url(#SVGID_2_);}
	.st4{fill:#6B9EE8;}
	.st5{display:inline;fill:#6B9EE8;}
	.st6{display:inline;fill:#FAC984;}
	.st7{display:inline;fill:#FFFFFF;}
	.st8{fill:#FBB787;}
	.st9{display:inline;fill:#FBB787;}
	.st10{display:inline;fill:#FEFCFB;}
	.st11{display:inline;fill:#4082E9;}
	.st12{display:inline;fill:#6B9EE8;fill-opacity:0.8;}
	.st13{display:inline;fill:#FBB787;fill-opacity:0.7;}
	.st14{fill:url(#SVGID_3_);}
	.st15{fill:url(#SVGID_4_);}
	.st16{fill:url(#SVGID_5_);}
	.st17{fill:url(#SVGID_6_);}
	.st18{fill:#FEFCFB;}
	.st19{fill:#4082E9;}
	.st20{opacity:0.5;fill:#FBB787;fill-opacity:0.7;}
	.st21{opacity:0.5;fill:#6B9EE8;fill-opacity:0.8;}
</style>
<g id="Layer_1" class="st0">
	<g id="Layer_1_1_">
		
			<image style="display:inline;overflow:visible;enable-background:new    ;" width="1440" height="701" xlink:href="44131593.png"  transform="matrix(-1 0 0 1 1440 0)">
		</image>
	</g>
	<g id="Layer_2_1_">
		
			<linearGradient id="SVGID_1_" gradientUnits="userSpaceOnUse" x1="-861.0154" y1="818" x2="-861.0154" y2="231" gradientTransform="matrix(-1 0 0 -1 219.0346 936)">
			<stop  offset="0" style="stop-color:#D5E4F9;stop-opacity:0.9"/>
			<stop  offset="0.3894" style="stop-color:#D5E4F9;stop-opacity:0.2"/>
			<stop  offset="0.7163" style="stop-color:#D5E4F9;stop-opacity:0.2"/>
			<stop  offset="1" style="stop-color:#D5E4F9;stop-opacity:0.9"/>
		</linearGradient>
		<path class="st1" d="M988.5,200.6c183.7-6.5,353.2-33.2,451.6-82.6v587H720c19.3-43.3,64.8-157.1,91.8-265.8
			C845.7,303.3,804.8,207.1,988.5,200.6z"/>
		<g class="st2">
			
				<radialGradient id="SVGID_2_" cx="-238.9787" cy="887.6907" r="1.0009" gradientTransform="matrix(0.2756 203.4998 -296.8797 0.4021 264710.75 48772.7031)" gradientUnits="userSpaceOnUse">
				<stop  offset="0.5" style="stop-color:#6AA0EB"/>
				<stop  offset="1" style="stop-color:#4C8AE4"/>
			</radialGradient>
			<path class="st3" d="M876,274.5c170-58.5,425.5-16,466-8c32.4,6.4,78.8-27,98-44.5v479H854.5c-6.2-26.2-8-43-40.5-110
				C797.3,556.4,706,333,876,274.5z"/>
		</g>
		<g class="st2">
			<path class="st4" d="M838.4,134.6l-4.7,22.2c-2,9.2-11,15-20.2,13.1l-22.8-4.9c-9.2-2-15-11-13.1-20.2l4.7-22.2
				c2-9.2,11-15,20.2-13.1l22.8,4.9C834.5,116.3,840.4,125.4,838.4,134.6z"/>
		</g>
		<path class="st5" d="M854.5,124.2l-10.3,48.5c-2,9.2-11,15-20.2,13.1l-49.3-10.5c-9.2-2-15-11-13.1-20.2l10.3-48.5
			c2-9.2,11-15,20.2-13.1l49.3,10.5C850.6,106,856.5,115.1,854.5,124.2z"/>
		<path class="st6" d="M815.7,143.1l-1.3,5.9l-5.3-1.1l-1.1,5.3l-3-0.6l-3-0.6l1.1-5.3l-5.3-1.1l1.3-5.9l5.3,1.1l1.1-5.3l5.9,1.3
			l-1.1,5.3L815.7,143.1z"/>
		<path class="st7" d="M817.9,125.6l-0.7,3.4l-13.8-2.9l0.7-3.4c0.1-0.4,0.5-0.6,0.8-0.5l12.4,2.6
			C817.8,124.9,818,125.3,817.9,125.6z M818.3,120.7l-12.4-2.6c-2.7-0.6-5.3,1.1-5.8,3.8l-0.7,3.4l-5.5-1.2c-3-0.7-6,1.3-6.7,4.3
			l-4.7,21.9c-0.6,3,1.3,6,4.3,6.6l33,7c3,0.6,6-1.3,6.7-4.3l4.7-21.9c0.6-3-1.3-6-4.3-6.6l-5.5-1.2l0.7-3.4
			C822.6,123.9,820.9,121.3,818.3,120.7z M810.2,141.9l4.1,0.9c0.8,0.2,1.2,0.9,1.1,1.7l-0.6,2.7c-0.2,0.8-0.9,1.2-1.7,1.1l-4.1-0.9
			l-0.9,4.1c-0.2,0.8-0.9,1.2-1.7,1.1l-2.8-0.6c-0.8-0.2-1.2-0.9-1.1-1.7l0.9-4.1l-4.1-0.9c-0.8-0.2-1.2-0.9-1.1-1.7l0.6-2.7
			c0.2-0.8,0.9-1.2,1.7-1.1l4.1,0.9l0.9-4.1c0.2-0.8,0.9-1.2,1.7-1.1l2.8,0.6c0.8,0.2,1.2,0.9,1.1,1.7L810.2,141.9z"/>
		<g class="st2">
			<path class="st8" d="M725.8,558.1l1.4,16c0.8,9.3-6.1,17.6-15.4,18.4l-16.5,1.5c-9.3,0.8-17.6-6.1-18.4-15.4l-1.4-16
				c-0.8-9.3,6.1-17.6,15.4-18.4l16.5-1.5C716.7,541.8,725,548.8,725.8,558.1z"/>
		</g>
		<path class="st9" d="M741.2,539.9l4.3,49.4c0.8,9.3-6.1,17.6-15.4,18.4l-50.2,4.4c-9.3,0.8-17.6-6.1-18.4-15.4l-4.3-49.4
			c-0.8-9.3,6.1-17.6,15.4-18.4l50.2-4.4C732.1,523.7,740.4,530.6,741.2,539.9z"/>
		<path class="st10" d="M711.3,572.4l-21.5-7.2l5.2-15.6c2-5.9,8.4-9.1,14.4-7.1l0,0c5.9,2,9.1,8.4,7.1,14.4L711.3,572.4z"/>
		<path class="st11" d="M711.6,571.6l-21.5-7.2l-5.2,15.6c-2,5.9,1.2,12.4,7.1,14.4l0,0c5.9,2,12.4-1.2,14.4-7.1L711.6,571.6z"/>
		<path class="st12" d="M1297.7,103.3l2.1-9.8c0.1-0.5-0.2-1.1-0.8-1.2l-9.8-2.1c-0.5-0.1-1.1,0.2-1.2,0.8l-2.1,9.8
			c-0.1,0.5,0.2,1.1,0.8,1.2l9.8,2.1C1297.1,104.2,1297.6,103.8,1297.7,103.3z"/>
		<path class="st13" d="M1401.1,177l0.9,10c0.1,0.6-0.4,1-0.9,1.1l-10,0.9c-0.6,0.1-1-0.4-1.1-0.9l-0.9-10c-0.1-0.6,0.4-1,0.9-1.1
			l10-0.9C1400.5,176,1401,176.4,1401.1,177z"/>
	</g>
	<g id="Layer_1_2_">
		
			<image style="display:inline;overflow:visible;enable-background:new    ;" width="1440" height="701" xlink:href="44131591.png"  transform="matrix(-1 0 0 1 1440 0)">
		</image>
	</g>
	<g id="Layer_2_2_" class="st2">
		
			<linearGradient id="SVGID_3_" gradientUnits="userSpaceOnUse" x1="-861.0154" y1="818" x2="-861.0154" y2="231" gradientTransform="matrix(-1 0 0 -1 219.0346 936)">
			<stop  offset="0" style="stop-color:#D5E4F9;stop-opacity:0.9"/>
			<stop  offset="0.3894" style="stop-color:#D5E4F9;stop-opacity:0.2"/>
			<stop  offset="0.7163" style="stop-color:#D5E4F9;stop-opacity:0.2"/>
			<stop  offset="1" style="stop-color:#D5E4F9;stop-opacity:0.9"/>
		</linearGradient>
		<path class="st14" d="M988.5,200.6c183.7-6.5,353.2-33.2,451.6-82.6v587H720c19.3-43.3,64.8-157.1,91.8-265.8
			C845.7,303.3,804.8,207.1,988.5,200.6z"/>
		<g>
			
				<radialGradient id="SVGID_4_" cx="-238.9787" cy="887.6907" r="1.0009" gradientTransform="matrix(0.2756 203.4998 -296.8797 0.4021 264710.75 48772.7031)" gradientUnits="userSpaceOnUse">
				<stop  offset="0.5" style="stop-color:#6AA0EB"/>
				<stop  offset="1" style="stop-color:#4C8AE4"/>
			</radialGradient>
			<path class="st15" d="M876,274.5c170-58.5,425.5-16,466-8c32.4,6.4,78.8-27,98-44.5v479H854.5c-6.2-26.2-8-43-40.5-110
				C797.3,556.4,706,333,876,274.5z"/>
		</g>
	</g>
</g>
<g id="Layer_2">
	<g id="Layer_2_3_">
		
			<linearGradient id="SVGID_5_" gradientUnits="userSpaceOnUse" x1="-205.822" y1="818" x2="-205.822" y2="231" gradientTransform="matrix(-1 0 0 -1 874.178 936)">
			<stop  offset="0" style="stop-color:#D5E4F9;stop-opacity:0.9"/>
			<stop  offset="0.3894" style="stop-color:#D5E4F9;stop-opacity:0.2"/>
			<stop  offset="0.7163" style="stop-color:#D5E4F9;stop-opacity:0.2"/>
			<stop  offset="1" style="stop-color:#D5E4F9;stop-opacity:0.9"/>
		</linearGradient>
		<path class="st16" d="M988.4,200.6c183.7-6.6,353.2-33.3,451.6-82.6v587H720c19.3-43.3,64.8-157.1,91.8-265.8
			C845.6,303.3,804.8,207.1,988.4,200.6z"/>
		<g>
			
				<radialGradient id="SVGID_6_" cx="-238.9831" cy="889.8976" r="1.0009" gradientTransform="matrix(0.2756 203.4998 -296.8797 0.4021 265365.9062 48772.7031)" gradientUnits="userSpaceOnUse">
				<stop  offset="0.5" style="stop-color:#6AA0EB"/>
				<stop  offset="1" style="stop-color:#4C8AE4"/>
			</radialGradient>
			<path class="st17" d="M876,274.5c170-58.5,425.5-16,466-8c32.4,6.4,78.8-27,98-44.5v479H854.5c-6.2-26.2-8-43-40.5-110
				C797.2,556.4,706,333,876,274.5z"/>
		</g>
	</g>
	<path class="st8" d="M632.5,544.4l4.3,49.4c0.9,9.3-6.1,17.6-15.4,18.4l-50.2,4.4c-9.3,0.9-17.6-6.1-18.4-15.4l-4.3-49.4
		c-0.9-9.3,6.1-17.6,15.4-18.4l50.2-4.4C623.5,528.2,631.7,535.1,632.5,544.4z"/>
	<path class="st18" d="M602.7,576.8l-21.5-7.2l5.2-15.6c2-5.9,8.5-9.1,14.4-7.1l0,0c5.9,2,9.1,8.5,7.1,14.4L602.7,576.8z"/>
	<path class="st19" d="M602.9,576l-21.5-7.2l-5.2,15.6c-2,6,1.2,12.4,7.1,14.4l0,0c6,2,12.4-1.2,14.4-7.1L602.9,576z"/>
	<path class="st20" d="M725.5,546l0.9,10c0.1,0.6-0.4,1-0.9,1.1l-9.9,0.9c-0.6,0.1-1.1-0.3-1.1-0.9l-0.9-9.9c-0.1-0.6,0.4-1,0.9-1.1
		l10-0.9C725,545.1,725.5,545.5,725.5,546z"/>
	<path class="st21" d="M921.3,152.1l2.1-9.8c0.1-0.5-0.3-1.1-0.8-1.2l-9.8-2.1c-0.6-0.1-1.1,0.3-1.2,0.8l-2.1,9.8
		c-0.1,0.5,0.3,1.1,0.8,1.2l9.8,2.1C920.8,153.1,921.2,152.7,921.3,152.1z"/>
</g>
</svg>
