<svg id="visual" viewBox="0 0 1440 570" width="1440" height="570" xmlns="http://www.w3.org/2000/svg" xmlns:xlink="http://www.w3.org/1999/xlink" version="1.1"><rect x="0" y="0" width="1440" height="570" fill="#4584dd"></rect><defs><linearGradient id="grad1_0" x1="60.4%" y1="0%" x2="100%" y2="100%"><stop offset="-0.5263157894736814%" stop-color="#0b62de" stop-opacity="1"></stop><stop offset="100.52631578947367%" stop-color="#0b62de" stop-opacity="1"></stop></linearGradient></defs><defs><linearGradient id="grad1_1" x1="60.4%" y1="0%" x2="100%" y2="100%"><stop offset="-0.5263157894736814%" stop-color="#0b62de" stop-opacity="1"></stop><stop offset="100.52631578947367%" stop-color="#1567de" stop-opacity="1"></stop></linearGradient></defs><defs><linearGradient id="grad1_2" x1="60.4%" y1="0%" x2="100%" y2="100%"><stop offset="-0.5263157894736814%" stop-color="#1e6cdf" stop-opacity="1"></stop><stop offset="100.52631578947367%" stop-color="#1567de" stop-opacity="1"></stop></linearGradient></defs><defs><linearGradient id="grad1_3" x1="60.4%" y1="0%" x2="100%" y2="100%"><stop offset="-0.5263157894736814%" stop-color="#1e6cdf" stop-opacity="1"></stop><stop offset="100.52631578947367%" stop-color="#2671df" stop-opacity="1"></stop></linearGradient></defs><defs><linearGradient id="grad1_4" x1="60.4%" y1="0%" x2="100%" y2="100%"><stop offset="-0.5263157894736814%" stop-color="#2e76de" stop-opacity="1"></stop><stop offset="100.52631578947367%" stop-color="#2671df" stop-opacity="1"></stop></linearGradient></defs><defs><linearGradient id="grad1_5" x1="60.4%" y1="0%" x2="100%" y2="100%"><stop offset="-0.5263157894736814%" stop-color="#2e76de" stop-opacity="1"></stop><stop offset="100.52631578947367%" stop-color="#367bde" stop-opacity="1"></stop></linearGradient></defs><defs><linearGradient id="grad1_6" x1="60.4%" y1="0%" x2="100%" y2="100%"><stop offset="-0.5263157894736814%" stop-color="#3d7fde" stop-opacity="1"></stop><stop offset="100.52631578947367%" stop-color="#367bde" stop-opacity="1"></stop></linearGradient></defs><defs><linearGradient id="grad1_7" x1="60.4%" y1="0%" x2="100%" y2="100%"><stop offset="-0.5263157894736814%" stop-color="#3d7fde" stop-opacity="1"></stop><stop offset="100.52631578947367%" stop-color="#4584dd" stop-opacity="1"></stop></linearGradient></defs><defs><linearGradient id="grad2_0" x1="0%" y1="0%" x2="39.6%" y2="100%"><stop offset="-0.5263157894736814%" stop-color="#0b62de" stop-opacity="1"></stop><stop offset="100.52631578947367%" stop-color="#0b62de" stop-opacity="1"></stop></linearGradient></defs><defs><linearGradient id="grad2_1" x1="0%" y1="0%" x2="39.6%" y2="100%"><stop offset="-0.5263157894736814%" stop-color="#1567de" stop-opacity="1"></stop><stop offset="100.52631578947367%" stop-color="#0b62de" stop-opacity="1"></stop></linearGradient></defs><defs><linearGradient id="grad2_2" x1="0%" y1="0%" x2="39.6%" y2="100%"><stop offset="-0.5263157894736814%" stop-color="#1567de" stop-opacity="1"></stop><stop offset="100.52631578947367%" stop-color="#1e6cdf" stop-opacity="1"></stop></linearGradient></defs><defs><linearGradient id="grad2_3" x1="0%" y1="0%" x2="39.6%" y2="100%"><stop offset="-0.5263157894736814%" stop-color="#2671df" stop-opacity="1"></stop><stop offset="100.52631578947367%" stop-color="#1e6cdf" stop-opacity="1"></stop></linearGradient></defs><defs><linearGradient id="grad2_4" x1="0%" y1="0%" x2="39.6%" y2="100%"><stop offset="-0.5263157894736814%" stop-color="#2671df" stop-opacity="1"></stop><stop offset="100.52631578947367%" stop-color="#2e76de" stop-opacity="1"></stop></linearGradient></defs><defs><linearGradient id="grad2_5" x1="0%" y1="0%" x2="39.6%" y2="100%"><stop offset="-0.5263157894736814%" stop-color="#367bde" stop-opacity="1"></stop><stop offset="100.52631578947367%" stop-color="#2e76de" stop-opacity="1"></stop></linearGradient></defs><defs><linearGradient id="grad2_6" x1="0%" y1="0%" x2="39.6%" y2="100%"><stop offset="-0.5263157894736814%" stop-color="#367bde" stop-opacity="1"></stop><stop offset="100.52631578947367%" stop-color="#3d7fde" stop-opacity="1"></stop></linearGradient></defs><defs><linearGradient id="grad2_7" x1="0%" y1="0%" x2="39.6%" y2="100%"><stop offset="-0.5263157894736814%" stop-color="#4584dd" stop-opacity="1"></stop><stop offset="100.52631578947367%" stop-color="#3d7fde" stop-opacity="1"></stop></linearGradient></defs><g transform="translate(1440, 0)"><path d="M0 543C-94.4 531.2 -188.9 519.4 -276.5 478.9C-364.1 438.4 -445 369.1 -492.8 284.5C-540.6 199.9 -555.3 99.9 -570 0L0 0Z" fill="#4182dd"></path><path d="M0 475.1C-82.6 464.8 -165.3 454.5 -241.9 419C-318.6 383.6 -389.4 323 -431.2 248.9C-473 174.9 -485.9 87.5 -498.7 0L0 0Z" fill="#3a7dde"></path><path d="M0 407.3C-70.8 398.4 -141.6 389.6 -207.4 359.2C-273.1 328.8 -333.7 276.8 -369.6 213.4C-405.4 149.9 -416.5 75 -427.5 0L0 0Z" fill="#3278de"></path><path d="M0 339.4C-59 332 -118 324.6 -172.8 299.3C-227.6 274 -278.1 230.7 -308 177.8C-337.8 124.9 -347 62.5 -356.2 0L0 0Z" fill="#2a74de"></path><path d="M0 271.5C-47.2 265.6 -94.4 259.7 -138.2 239.5C-182.1 219.2 -222.5 184.6 -246.4 142.3C-270.3 99.9 -277.6 50 -285 0L0 0Z" fill="#226fdf"></path><path d="M0 203.6C-35.4 199.2 -70.8 194.8 -103.7 179.6C-136.6 164.4 -166.9 138.4 -184.8 106.7C-202.7 75 -208.2 37.5 -213.7 0L0 0Z" fill="#196ade"></path><path d="M0 135.8C-23.6 132.8 -47.2 129.9 -69.1 119.7C-91 109.6 -111.2 92.3 -123.2 71.1C-135.1 50 -138.8 25 -142.5 0L0 0Z" fill="#1065de"></path><path d="M0 67.9C-11.8 66.4 -23.6 64.9 -34.6 59.9C-45.5 54.8 -55.6 46.1 -61.6 35.6C-67.6 25 -69.4 12.5 -71.2 0L0 0Z" fill="#0b62de"></path></g><g transform="translate(0, 570)"><path d="M0 -565C92.4 -541.1 184.9 -517.2 273.5 -473.7C362.1 -430.2 447 -367.2 493.6 -285C540.3 -202.8 548.6 -101.4 557 0L0 0Z" fill="#4182dd"></path><path d="M0 -494.4C80.9 -473.5 161.7 -452.5 239.3 -414.5C316.9 -376.5 391.1 -321.3 431.9 -249.4C472.7 -177.4 480 -88.7 487.4 0L0 0Z" fill="#3a7dde"></path><path d="M0 -423.7C69.3 -405.8 138.6 -387.9 205.1 -355.3C271.6 -322.7 335.3 -275.4 370.2 -213.8C405.2 -152.1 411.5 -76 417.8 0L0 0Z" fill="#3278de"></path><path d="M0 -353.1C57.8 -338.2 115.5 -323.2 170.9 -296.1C226.3 -268.9 279.4 -229.5 308.5 -178.1C337.7 -126.7 342.9 -63.4 348.1 0L0 0Z" fill="#2a74de"></path><path d="M0 -282.5C46.2 -270.5 92.4 -258.6 136.7 -236.9C181.1 -215.1 223.5 -183.6 246.8 -142.5C270.1 -101.4 274.3 -50.7 278.5 0L0 0Z" fill="#226fdf"></path><path d="M0 -211.9C34.7 -202.9 69.3 -193.9 102.6 -177.6C135.8 -161.3 167.6 -137.7 185.1 -106.9C202.6 -76 205.7 -38 208.9 0L0 0Z" fill="#196ade"></path><path d="M0 -141.2C23.1 -135.3 46.2 -129.3 68.4 -118.4C90.5 -107.6 111.8 -91.8 123.4 -71.3C135.1 -50.7 137.2 -25.3 139.3 0L0 0Z" fill="#1065de"></path><path d="M0 -70.6C11.6 -67.6 23.1 -64.6 34.2 -59.2C45.3 -53.8 55.9 -45.9 61.7 -35.6C67.5 -25.3 68.6 -12.7 69.6 0L0 0Z" fill="#0b62de"></path></g></svg>